<?xml version="1.0" encoding="UTF-8"?>
<svg width="54px" height="54px" viewBox="0 0 54 54" version="1.1" xmlns="http://www.w3.org/2000/svg" xmlns:xlink="http://www.w3.org/1999/xlink">
    <!-- Generator: Sketch 52.2 (67145) - http://www.bohemiancoding.com/sketch -->
    <title>horeca</title>
    <desc>Created with Sketch.</desc>
    <g id="Page-1" stroke="none" stroke-width="1" fill="none" fill-rule="evenodd">
        <g id="03-HOME-COMPLETA" transform="translate(-708.000000, -1894.000000)">
            <g id="horeca" transform="translate(705.000000, 1892.000000)">
                <ellipse id="Oval" fill="#DDB246" fill-rule="nonzero" cx="29.9260082" cy="28.8871067" rx="26.439483" ry="26.552795"></ellipse>
                <g id="chef" stroke-width="1" fill-rule="evenodd" transform="translate(13.365013, 8.753669)" fill="#FFFFFF">
                    <path d="M29.2449563,30.3460515 L5.44530427,30.3460515 C5.00750023,30.3460515 4.65257024,30.7090356 4.65175191,31.1567743 L4.64870179,33.5232084 C4.64788347,34.408491 4.98421516,35.2405926 5.59565294,35.8667421 C6.20783465,36.4935763 7.02072924,36.8383009 7.88636861,36.8383009 L26.8008419,36.8383009 C28.5862789,36.8383009 30.0384343,35.353193 30.0384343,33.5272407 L30.0384343,31.1576112 C30.0384343,30.7090356 29.6835787,30.3460515 29.2449563,30.3460515" id="Fill-1"></path>
                    <path d="M24.2365862,22.8662005 C24.0804236,23.0649419 23.8550768,23.168424 23.6274412,23.168424 C23.4513429,23.168424 23.2744325,23.1069864 23.1283115,22.9809306 C22.7922112,22.6908085 22.7429627,22.1696747 23.0182963,21.8165635 C23.8628296,20.7329496 25.2025794,18.5697556 25.2025794,17.3762986 C25.2025794,16.9189296 25.5548497,16.54883 25.9901853,16.54883 C26.4255209,16.54883 26.7777913,16.9189296 26.7777913,17.3762986 C26.7777913,19.5491117 24.4965619,22.5324825 24.2365862,22.8662005 Z M18.114347,22.3409554 C18.114347,22.7983244 17.7621504,23.168424 17.3268148,23.168424 C16.8914792,23.168424 16.5392089,22.7983244 16.5392089,22.3409554 L16.5392089,17.3762986 C16.5392089,16.9189296 16.8914792,16.54883 17.3268148,16.54883 C17.7621504,16.54883 18.114347,16.9189296 18.114347,17.3762986 L18.114347,22.3409554 Z M11.5260565,22.9809306 C11.3791972,23.1069864 11.2022867,23.168424 11.0269268,23.168424 C10.7992174,23.168424 10.5731323,23.0649419 10.4169697,22.8662005 C10.1570678,22.5324825 7.87583835,19.5491117 7.87583835,17.3762986 C7.87583835,16.9189296 8.22810873,16.54883 8.6633705,16.54883 C9.09870611,16.54883 9.45097649,16.9189296 9.45097649,17.3762986 C9.45097649,18.5738669 10.7908001,20.7345786 11.6352596,21.8157102 C11.910667,22.1696747 11.8621569,22.6908085 11.5260565,22.9809306 Z M25.9901853,3.30979702 C25.507964,3.30979702 25.0126,3.36068475 24.4880708,3.46331352 C22.6860354,1.25574787 20.1033345,0 17.3268148,0 C12.115192,0 7.87583835,4.45399526 7.87583835,9.92931349 C7.87583835,10.3858292 7.52275578,10.7567821 7.08823237,10.7567821 C6.65370895,10.7567821 6.30062638,10.3858292 6.30062638,9.92931349 C6.30062638,8.13784814 6.69291574,6.40456235 7.4666406,4.77801668 C7.60434428,4.48874785 7.56890312,4.14207518 7.37663482,3.88996371 C7.18436652,3.63948126 6.86982621,3.52793163 6.57138209,3.60472866 C2.70194557,4.61883738 0,8.2404769 0,12.4116419 C0,15.8506751 1.84589385,18.9770126 4.74394718,20.5228825 L4.73545607,27.3048364 C4.73545607,27.5238243 4.81778294,27.7346671 4.96545444,27.8906659 C5.11386431,28.0458114 5.31388537,28.1330808 5.52306206,28.1330808 L29.1405354,28.1330808 C29.5758711,28.1330808 29.9280676,27.7629811 29.9280676,27.3056121 L29.9280676,20.5107036 C32.8154148,18.9608774 34.6535558,15.8394271 34.6535558,12.4116419 C34.6535558,7.39283933 30.7672109,3.30979702 25.9901853,3.30979702 Z" id="Fill-3"></path>
                </g>
            </g>
        </g>
    </g>
</svg>