<?xml version="1.0" encoding="UTF-8"?>
<svg width="54px" height="55px" viewBox="0 0 54 55" version="1.1" xmlns="http://www.w3.org/2000/svg" xmlns:xlink="http://www.w3.org/1999/xlink">
    <!-- Generator: Sketch 52.2 (67145) - http://www.bohemiancoding.com/sketch -->
    <title>regalo</title>
    <desc>Created with Sketch.</desc>
    <g id="Page-1" stroke="none" stroke-width="1" fill="none" fill-rule="evenodd">
        <g id="03-HOME-COMPLETA" transform="translate(-1090.000000, -1893.000000)">
            <g id="regalo" transform="translate(1087.000000, 1891.000000)">
                <g id="gift-box-with-a-ribbon-on-top" transform="translate(3.526300, 2.378203)">
                    <g id="Group-4">
                        <ellipse id="Oval" fill="#DDB246" fill-rule="nonzero" cx="26.7411108" cy="27.0520539" rx="26.7411108" ry="27.0520539"></ellipse>
                        <path d="M23.2853988,17.7892857 L30.2923235,17.7892857 C32.1241095,17.2935763 33.7947402,16.4231706 35.1797874,15.2071561 C37.1153507,13.5084217 39.2243553,9.9943807 37.8637494,7.63429339 C37.2674876,6.60002049 35.7414132,5.59250368 34.2908843,6.06567576 C32.6643002,6.59646781 31.5988189,7.72755115 30.5077201,8.84076008 C29.0496106,10.3283323 27.821667,11.9459102 26.7888612,13.6541924 C25.7555326,11.9459102 24.5275889,10.3283323 23.0694794,8.84076008 C21.9789034,7.72755115 20.9128993,6.59646781 19.2863152,6.06567576 C17.8352635,5.59250368 16.3091891,6.60002049 15.7134502,7.63429339 C14.3532363,9.9943807 16.4623716,13.5084217 18.3974121,15.2071561 C19.7829821,16.4231706 21.4536128,17.2940204 23.2853988,17.7892857 Z M31.2555969,12.6038366 C31.8206906,11.8440782 32.450308,11.1265161 33.1119311,10.4303888 C33.4289162,10.0962971 33.7649767,9.77668232 34.1010372,9.45717977 C34.4911234,9.08582959 35.3017653,8.16345816 35.4062321,9.2309356 C35.5703577,10.9007208 34.211521,12.740638 32.9598397,13.8746645 C31.945129,14.793557 30.644927,15.3901413 29.2547247,15.699207 C29.8423505,14.6321784 30.5124231,13.6028572 31.2555969,12.6038366 Z M18.5821067,9.23108157 C18.6865662,8.16355413 19.4976634,9.08551985 19.8877223,9.45688741 C20.2237593,9.77640493 20.5597963,10.0960347 20.8767592,10.430142 C21.538336,11.1267508 22.1679093,11.8443465 22.7329634,12.6036916 C23.4755731,13.6027591 24.1461109,14.6321285 24.7336956,15.699207 C23.3430786,15.3901268 22.0429675,14.7938512 21.0288399,13.874579 C19.7772462,12.7404995 18.4185047,10.9000471 18.5821067,9.23108157 Z" id="Fill-3" fill="#FFFFFF"></path>
                        <path d="M11.0402465,24.8793255 C10.4603411,24.8793255 9.99118425,24.4855596 9.99118425,23.9989438 L9.99118425,21.4283644 C9.99118425,19.4475673 11.9110882,17.8365191 14.2716258,17.8365191 L39.2785713,17.8365191 C40.4230387,17.8365191 41.4977718,18.2104771 42.3071411,18.8904682 C43.1155269,19.5697165 43.5601932,20.4723822 43.5591113,21.4327387 L43.5550787,23.9998516 C43.5539968,24.4855596 43.0847416,24.8793255 42.5059181,24.8793255 L11.0402465,24.8793255 Z" id="Fill-1" fill="#FFFFFF"></path>
                        <path d="M42.510051,27.9438799 L11.0443794,27.9438799 C10.4655559,27.9438799 9.99630072,28.9608836 9.9952188,30.2153516 L9.99118622,36.8455935 C9.99010431,39.3259656 10.4347706,41.6573363 11.2431564,43.4116731 C12.0525257,45.1679283 13.1272588,46.1337728 14.2717261,46.1337728 L39.2786717,46.1337728 C41.6392093,46.1337728 43.5591132,41.9728185 43.5591132,36.8568912 L43.5591132,30.2176964 C43.5591132,28.9608836 43.0899564,27.9438799 42.510051,27.9438799" id="Fill-1" fill="#FFFFFF"></path>
                    </g>
                </g>
            </g>
        </g>
    </g>
</svg>