<?xml version="1.0" encoding="UTF-8"?>
<svg width="46px" height="43px" viewBox="0 0 46 43" version="1.1" xmlns="http://www.w3.org/2000/svg" xmlns:xlink="http://www.w3.org/1999/xlink">
    <!-- Generator: Sketch 52.2 (67145) - http://www.bohemiancoding.com/sketch -->
    <title>Group 6</title>
    <desc>Created with Sketch.</desc>
    <g id="Page-1" stroke="none" stroke-width="1" fill="none" fill-rule="evenodd">
        <g id="05-PRODUCTO-FICHA" transform="translate(-412.000000, -1120.000000)" fill="#DDB246" fill-rule="nonzero">
            <g id="ficha-producto" transform="translate(370.000000, 265.000000)">
                <g id="delivery" transform="translate(3.000000, 855.000000)">
                    <g id="Group-6" transform="translate(39.000000, 0.000000)">
                        <polygon id="Shape" points="22 10 22 24 31 24 31 21.5384615 24.4827586 21.5384615 24.4827586 10"></polygon>
                        <path d="M46,21.6504734 C46,9.71093511 36.3757464,0 24.5623668,0 C13.9662527,0 5.14700266,7.87628723 3.44094061,18.0539873 L0,18.0539873 L5.93403455,28.3882674 L12.0418978,18.0539873 L8.48491646,18.0539873 C10.1125852,10.5381473 16.710949,5.01056005 24.5738314,5.01056005 C33.6533597,5.01056005 41.0423188,12.4751985 41.0423188,21.6515694 C41.0423188,29.5810939 35.4311532,36.23089 28.149559,37.8922038 L28.149559,43 C38.2198489,41.2755844 46,32.3592928 46,21.6504734 Z" id="Shape"></path>
                        <path d="M4.09562748,40.7818657 L5.80436568,39.0859681 C6.91458369,37.9579305 7.67633666,37.1136661 8.08979253,36.541573 C8.50324839,35.9693232 8.70997633,35.3139796 8.70997633,34.5689574 C8.70997633,33.462242 8.32103896,32.5922655 7.54333217,31.9549517 C6.76562538,31.318265 5.68294871,31 4.29513421,31 C2.98809643,31 1.93867088,31.3800366 1.14652168,32.1382284 C0.354204546,32.8967337 -0.0275116144,33.8430625 0.00154113336,34.9334727 L0.019006369,35.004024 L2.8812898,35.004024 C2.8812898,34.376901 3.00707308,33.998589 3.25863965,33.6503789 C3.51020622,33.3018552 3.85564842,33.1171675 4.29530215,33.1171675 C4.78667983,33.1171675 5.15529707,33.2466684 5.40098591,33.5168017 C5.64684269,33.7866214 5.76960314,34.1454926 5.76960314,34.5992161 C5.76960314,34.9176378 5.64818617,35.2914032 5.40535222,35.7231774 C5.16251827,36.1552652 4.81237388,36.6456755 4.29815704,37.1966031 L0.267382172,41.1799321 L0.267382172,43 L9,43 L9,40.8050692 L4.1216574,40.8050692 L4.09562748,40.7818657 Z" id="Shape"></path>
                        <path d="M16.699234,31.0466976 L13.9351062,31.0466976 L13.9351062,31 L9,38.7427118 L9.13723081,40.4499621 L13.9351062,40.4499621 L13.9351062,43 L16.699234,43 L16.699234,40.4499621 L18,40.4499621 L18,38.3780564 L16.699234,38.3780564 L16.699234,31.0466976 Z M13.9351062,38.3780564 L11.5056005,38.3780564 L13.6051995,34.9538337 L13.8541335,34.5938002 L13.9351062,34.5891783 L13.9351062,38.3780564 Z" id="Shape"></path>
                        <path d="M25.9990723,43 L25.9990723,37.8884737 C25.9990723,37.5085789 26.0086712,37.1601053 25.9661161,36.8368947 C25.8582886,36.0221579 25.6344746,35.3837895 25.2561185,34.9282632 C24.7270598,34.2921053 24.0084232,33.9741053 23.0829305,33.9741053 C22.6146648,33.9741053 22.2209505,34.0841579 21.8325155,34.3044211 C21.4440806,34.5246842 21.0396475,34.8333684 20.879666,35.2301579 L20.879666,31 L18,31 L18,43 L20.879666,43 L20.879666,36.5428947 C20.879666,36.4015789 21.1466751,36.2915263 21.345212,36.2125789 C21.5432691,36.1339474 21.7622837,36.0944737 22.0321724,36.0944737 C22.4564432,36.0944737 22.7674471,36.2222105 22.9739831,36.4775263 C23.1806792,36.7331579 23.2793877,37.198 23.2793877,37.8723684 L23.2793877,43 L24.2520749,43 L25.9990723,43 Z" id="Shape"></path>
                    </g>
                </g>
            </g>
        </g>
    </g>
</svg>