<svg xmlns="http://www.w3.org/2000/svg" xmlns:xlink="http://www.w3.org/1999/xlink" width="1155.257" height="455.727" viewBox="0 0 1155.257 455.727"><defs><style>.a{fill:none;}.b{isolation:isolate;clip-path:url(#a);}.c{fill:#ffc527;}.d{fill:#ffcc80;}.e{fill:#ffb74d;}.f{fill:#182632;}</style><clipPath id="a"><rect class="a" y="-19" width="1155.257" height="455.727"/></clipPath></defs><g class="b" transform="translate(0 19)"><g transform="translate(-45.785 -223.356)"><g transform="translate(45.785 223.356)"><path class="c" d="M170.236,59.5H112.9L95.48,7.506a6.313,6.313,0,0,0-11.849,0L66.209,59.5H8.486A6.254,6.254,0,0,0,2.25,65.736a4.583,4.583,0,0,0,.117,1.052,5.992,5.992,0,0,0,2.611,4.4L52.1,104.4,34.015,156.978a6.254,6.254,0,0,0,2.144,7.016,6.031,6.031,0,0,0,3.508,1.52,7.641,7.641,0,0,0,3.9-1.4l45.991-32.779,45.991,32.779a7.3,7.3,0,0,0,3.9,1.4,5.6,5.6,0,0,0,3.469-1.52,6.178,6.178,0,0,0,2.144-7.016L126.972,104.4,173.7,70.881l1.13-.974a6.538,6.538,0,0,0,2.027-4.17C176.861,62.306,173.665,59.5,170.236,59.5Z" transform="translate(-2.25 -3.375)"/><path class="c" d="M170.236,59.5H112.9L95.48,7.506a6.313,6.313,0,0,0-11.849,0L66.209,59.5H8.486A6.254,6.254,0,0,0,2.25,65.736a4.583,4.583,0,0,0,.117,1.052,5.992,5.992,0,0,0,2.611,4.4L52.1,104.4,34.015,156.978a6.254,6.254,0,0,0,2.144,7.016,6.031,6.031,0,0,0,3.508,1.52,7.641,7.641,0,0,0,3.9-1.4l45.991-32.779,45.991,32.779a7.3,7.3,0,0,0,3.9,1.4,5.6,5.6,0,0,0,3.469-1.52,6.178,6.178,0,0,0,2.144-7.016L126.972,104.4,173.7,70.881l1.13-.974a6.538,6.538,0,0,0,2.027-4.17C176.861,62.306,173.665,59.5,170.236,59.5Z" transform="translate(209.778 -3.375)"/><path class="c" d="M170.236,59.5H112.9L95.48,7.506a6.313,6.313,0,0,0-11.849,0L66.209,59.5H8.486A6.254,6.254,0,0,0,2.25,65.736a4.583,4.583,0,0,0,.117,1.052,5.992,5.992,0,0,0,2.611,4.4L52.1,104.4,34.015,156.978a6.254,6.254,0,0,0,2.144,7.016,6.031,6.031,0,0,0,3.508,1.52,7.641,7.641,0,0,0,3.9-1.4l45.991-32.779,45.991,32.779a7.3,7.3,0,0,0,3.9,1.4,5.6,5.6,0,0,0,3.469-1.52,6.178,6.178,0,0,0,2.144-7.016L126.972,104.4,173.7,70.881l1.13-.974a6.538,6.538,0,0,0,2.027-4.17C176.861,62.306,173.665,59.5,170.236,59.5Z" transform="translate(421.805 -3.375)"/><path class="c" d="M170.236,59.5H112.9L95.48,7.506a6.313,6.313,0,0,0-11.849,0L66.209,59.5H8.486A6.254,6.254,0,0,0,2.25,65.736a4.583,4.583,0,0,0,.117,1.052,5.992,5.992,0,0,0,2.611,4.4L52.1,104.4,34.015,156.978a6.254,6.254,0,0,0,2.144,7.016,6.031,6.031,0,0,0,3.508,1.52,7.641,7.641,0,0,0,3.9-1.4l45.991-32.779,45.991,32.779a7.3,7.3,0,0,0,3.9,1.4,5.6,5.6,0,0,0,3.469-1.52,6.178,6.178,0,0,0,2.144-7.016L126.972,104.4,173.7,70.881l1.13-.974a6.538,6.538,0,0,0,2.027-4.17C176.861,62.306,173.665,59.5,170.236,59.5Z" transform="translate(633.834 -3.375)"/><path class="c" d="M170.236,59.5H112.9L95.48,7.506a6.313,6.313,0,0,0-11.849,0L66.209,59.5H8.486A6.254,6.254,0,0,0,2.25,65.736a4.583,4.583,0,0,0,.117,1.052,5.992,5.992,0,0,0,2.611,4.4L52.1,104.4,34.015,156.978a6.254,6.254,0,0,0,2.144,7.016,6.031,6.031,0,0,0,3.508,1.52,7.641,7.641,0,0,0,3.9-1.4l45.991-32.779,45.991,32.779a7.3,7.3,0,0,0,3.9,1.4,5.6,5.6,0,0,0,3.469-1.52,6.178,6.178,0,0,0,2.144-7.016L126.972,104.4,173.7,70.881l1.13-.974a6.538,6.538,0,0,0,2.027-4.17C176.861,62.306,173.665,59.5,170.236,59.5Z" transform="translate(845.862 -3.375)"/></g><g transform="translate(830.499 304.032)"><g transform="translate(0)"><path class="d" d="M385.786,147.181a29.253,29.253,0,0,0-29.253,29.253v-19.5a29.253,29.253,0,1,0-58.506,0v-19.5a29.253,29.253,0,1,0-58.506,0V39.92a29.253,29.253,0,0,0-58.506,0V283.7L113.3,249.841a48.762,48.762,0,0,0-21.8-5.149A27.5,27.5,0,0,0,64,272.19v.117a27.5,27.5,0,0,0,8.055,19.5l126.1,126.1a141.2,141.2,0,0,0,99.87,41.305h0A117.013,117.013,0,0,0,415.04,342.2V176.434A29.253,29.253,0,0,0,385.786,147.181Z" transform="translate(-54.247 -0.916)"/><g transform="translate(185.274 114.867)"><path class="e" d="M265.753,125.653V235.06A9.752,9.752,0,0,1,256,244.811V147.3A28.613,28.613,0,0,1,265.753,125.653Z" transform="translate(-256.002 -125.653)"/><path class="e" d="M329.753,146.987v89.9A9.752,9.752,0,0,1,320,246.643V168.635A28.611,28.611,0,0,1,329.753,146.987Z" transform="translate(-261.495 -127.484)"/><path class="e" d="M393.753,168.32v70.4A9.752,9.752,0,0,1,384,248.474V189.967A28.611,28.611,0,0,1,393.753,168.32Z" transform="translate(-266.989 -129.316)"/></g><path class="f" d="M297.111,468.05a149.97,149.97,0,0,1-106.755-44.212l-126.1-126.1a37.327,37.327,0,0,1,26.328-63.713,58.785,58.785,0,0,1,26.152,6.162L170.347,267V39a39,39,0,1,1,78.009,0v63.753a39,39,0,0,1,56.321,20.868,39.005,39.005,0,0,1,58.506,19.5,39,39,0,0,1,60.69,32.393V341.287A126.918,126.918,0,0,1,297.111,468.05ZM90.584,253.527A17.825,17.825,0,0,0,78.025,283.95l126.1,126.1a130.662,130.662,0,0,0,92.986,38.5A107.4,107.4,0,0,0,404.372,341.286V175.519a19.5,19.5,0,0,0-39,0v48.755a9.751,9.751,0,0,1-19.5,0V156.016a19.5,19.5,0,1,0-39,0v68.258a9.751,9.751,0,0,1-19.5,0V136.514a19.5,19.5,0,0,0-39,0v87.759a9.751,9.751,0,1,1-19.5,0V39a19.5,19.5,0,1,0-39,0V282.781a9.751,9.751,0,0,1-14.119,8.717l-67.79-33.856A39.177,39.177,0,0,0,90.584,253.527Z" transform="translate(-53.331)"/></g></g></g></g></svg>