<?xml version="1.0" encoding="UTF-8"?>
<svg width="200px" height="52px" viewBox="0 0 200 52" version="1.1" xmlns="http://www.w3.org/2000/svg" xmlns:xlink="http://www.w3.org/1999/xlink">
    <!-- Generator: Sketch 52.2 (67145) - http://www.bohemiancoding.com/sketch -->
    <title>logo-color</title>
    <desc>Created with Sketch.</desc>
    <defs>
        <polygon id="path-1" points="2.84217094e-13 3.55271368e-14 199.542857 3.55271368e-14 199.542857 51.744 2.84217094e-13 51.744"></polygon>
        <polygon id="path-3" points="0.204081633 0.4 113.77551 0.4 113.77551 6 0.204081633 6"></polygon>
    </defs>
    <g id="Page-1" stroke="none" stroke-width="1" fill="none" fill-rule="evenodd">
        <g id="03-HOME-COMPLETA" transform="translate(-637.000000, -14.000000)">
            <g id="header-color" transform="translate(0.000000, -3.000000)">
                <g id="logo-color" transform="translate(637.000000, 17.000000)">
                    <mask id="mask-2" fill="white">
                        <use xlink:href="#path-1"></use>
                    </mask>
                    <g id="Clip-1"></g>
                    <text id="CALIDAD" mask="url(#mask-2)" font-family="Ubuntu-Bold, Ubuntu" font-size="12.6373632" font-weight="bold" letter-spacing="1.6128001" fill="#3C2921">
                        <tspan x="119.993143" y="51.96">CALIDA</tspan>
                        <tspan x="176.541924" y="51.96">D</tspan>
                    </text>
                    <path d="M79.2040597,14.784 C76.1748731,14.784 75.4285714,15.799482 75.4285714,17.471312 C75.4285714,19.1431421 76.1748731,20.16 79.2040597,20.16 C82.2251269,20.16 82.9714286,19.1431421 82.9714286,17.471312 C82.9714286,15.799482 82.2251269,14.784 79.2040597,14.784" id="Fill-2" fill="#0E3E62" mask="url(#mask-2)"></path>
                    <path d="M39.0857143,17.1356621 C39.0857143,18.8284534 40.7357354,19.488 42.6402307,19.488 L46.6285714,19.488 L46.6285714,14.784 L42.6402307,14.784 C40.7357354,14.784 39.0857143,15.4428709 39.0857143,17.1356621" id="Fill-3" fill="#3C2921" mask="url(#mask-2)"></path>
                    <path d="M188.185079,12.768 L187.885714,12.768 L187.885714,13.344576 L188.223488,13.344576 C188.327983,13.341216 188.411579,13.315008 188.475971,13.265952 C188.539233,13.216224 188.571429,13.15104 188.571429,13.069728 C188.571429,12.960192 188.543187,12.88224 188.486703,12.836544 C188.430219,12.790848 188.329678,12.768 188.185079,12.768" id="Fill-4" fill="#0E3E62" mask="url(#mask-2)"></path>
                    <path d="M141.258175,14.112 C136.885978,14.112 135.771429,15.6155708 135.771429,17.4723338 C135.771429,19.3277615 136.885978,20.832 141.258175,20.832 C145.633812,20.832 146.742857,19.3277615 146.742857,17.4723338 C146.742857,15.6155708 145.633812,14.112 141.258175,14.112" id="Fill-5" fill="#0E3E62" mask="url(#mask-2)"></path>
                    <path d="M172.114286,19.5038975 C172.114286,20.3987935 173.035571,20.832 175.259078,20.832 L181.714286,20.832 L181.714286,18.144 L175.159703,18.144 C173.035571,18.144 172.114286,18.5758817 172.114286,19.5038975" id="Fill-6" fill="#3C2921" mask="url(#mask-2)"></path>
                    <path d="M189.525826,14.512182 C189.360792,14.7853318 189.126596,15.0056139 188.822552,15.1716726 C188.519192,15.3377314 188.185702,15.4210997 187.822081,15.4210997 C187.45983,15.4210997 187.129079,15.339087 186.825034,15.1743838 C186.521675,15.0096806 186.286794,14.7907541 186.119021,14.5169266 C185.952619,14.243099 185.869075,13.94826 185.869075,13.6317316 C185.869075,13.3104587 185.954673,13.0122307 186.126554,12.7370475 C186.29775,12.4618644 186.53537,12.2449713 186.839415,12.087046 C187.142775,11.9284429 187.470786,11.8498192 187.822081,11.8498192 C188.174745,11.8498192 188.502072,11.9284429 188.804747,12.087046 C189.107422,12.2449713 189.343673,12.4618644 189.516239,12.7370475 C189.687435,13.0122307 189.773033,13.3104587 189.773033,13.6317316 C189.773033,13.944871 189.690859,14.2383545 189.525826,14.512182 Z M184.752876,22.1197077 L174.120223,22.1197077 C170.592212,22.1197077 168.440618,21.1728337 168.440618,19.352965 C168.440618,17.5202183 170.592212,16.551655 174.120907,16.5509772 L181.539181,16.5509772 L181.539181,16.2798608 C181.539181,14.9893469 180.652385,14.363068 178.823324,14.363068 L169.108283,14.363068 L169.108283,12.9342847 L180.023067,12.9342847 C181.692573,12.9342847 184.752876,13.4263609 184.752876,15.6529042 L184.752876,22.1197077 Z M159.661677,22.1197077 L156.790375,22.1197077 L149.281025,12.9342847 L152.97133,12.9342847 L158.39688,19.7603174 L164.13743,12.9342847 L167.895529,12.9342847 L159.661677,22.1197077 Z M140.778737,22.3610013 C133.837074,22.3610013 131.849144,20.3384731 131.849144,17.5385186 C131.849144,14.7168749 133.837759,12.7126471 140.778737,12.7126471 C147.719031,12.7119693 149.708331,14.7168749 149.708331,17.5385186 C149.708331,20.3384731 147.719031,22.3610013 140.778737,22.3610013 Z M129.832453,22.1197077 L126.61054,22.1197077 L126.61054,16.3998298 C126.61054,15.446178 126.014093,14.363068 123.018844,14.363068 L118.064426,14.363068 L118.064426,22.1197077 L114.87196,22.1197077 L114.87196,12.9342847 L123.807716,12.9342847 C127.653468,12.9342847 129.832453,13.9360597 129.832453,16.0101 L129.832453,22.1197077 Z M112.063658,22.1197077 L108.849278,22.1197077 L108.849278,16.4005076 C108.849278,15.446178 108.248037,14.3623902 105.255527,14.3623902 L100.299055,14.3623902 L100.299055,22.1197077 L97.1120669,22.1197077 L97.1120669,12.9349625 L106.04166,12.9349625 C109.888096,12.9349625 112.063658,13.9360597 112.063658,16.0107778 L112.063658,22.1197077 Z M90.7784926,11.2716635 L93.9647961,11.2716635 L93.9647961,9.41858305 L90.7784926,9.41858305 L90.7784926,11.2716635 Z M90.7784926,22.1197077 L93.9647961,22.1197077 L93.9647961,12.9349625 L90.7784926,12.9349625 L90.7784926,22.1197077 Z M79.0946949,22.3094891 C73.3794813,22.3094891 69.7494372,20.6102672 69.7494372,17.4016049 C69.7494372,14.1936203 73.3794813,12.495754 79.0946949,12.495754 C84.7996368,12.495754 88.4269417,14.1936203 88.4269417,17.4016049 C88.4269417,20.6102672 84.7996368,22.3094891 79.0946949,22.3094891 Z M68.1860736,16.551655 L62.9193939,16.551655 L62.9193939,16.0284004 C62.9193939,15.4312666 62.1284675,15.0428924 61.0855403,15.0428924 L59.6652967,15.0428924 L59.6652967,22.1203855 L54.3979323,22.1203855 L54.3979323,12.6828243 L62.7577847,12.6828243 C65.4106409,12.6828243 68.1860736,13.8032127 68.1860736,15.6027477 L68.1860736,16.551655 Z M51.5731951,22.1203855 C51.5731951,24.7014134 48.7320231,25.8909365 45.1677184,25.8909365 L35.0719366,25.8909365 L35.0719366,23.66846 L44.217922,23.66846 C45.3265885,23.66846 46.3010372,23.5823805 46.3010372,22.2911888 L46.3010372,22.1203855 L41.5705441,22.1203855 C36.3038644,22.1203855 33.1504306,20.4753868 33.1504306,17.4016049 C33.1504306,14.3278229 36.3038644,12.6828243 41.5705441,12.6828243 L51.5731951,12.6828243 L51.5731951,22.1203855 Z M31.1084024,22.1203855 L19.121245,22.1203855 C15.4946249,22.1203855 13.5696949,20.9491627 13.5696949,19.236385 C13.5696949,17.5046291 15.4946249,16.3334063 19.121245,16.3334063 L25.8444619,16.3334063 C25.8444619,15.6366372 25.3329277,14.9066564 23.3176061,14.9066564 L14.7961445,14.9066564 L14.7961445,12.6828243 L24.7659259,12.6828243 C27.511228,12.6828243 31.1084024,13.4622839 31.1084024,16.1449804 L31.1084024,22.1203855 Z M15.1679826,1.42108547e-14 C6.79101053,1.42108547e-14 2.84217094e-13,6.72165286 2.84217094e-13,15.0137474 L2.84217094e-13,38.304 C2.84217094e-13,38.304 29.957964,31.2048176 97.1127517,35.3088418 C158.512608,39.0617703 185.162377,35.3088418 185.162377,35.3088418 C194.721972,34.3016444 199.542857,28.9362513 199.542857,21.0752318 L199.542857,1.42108547e-14 L15.1679826,1.42108547e-14 Z" id="Fill-7" fill="#3C2921" mask="url(#mask-2)"></path>
                    <path d="M19.2,18.8219916 C19.2,19.35997 19.9709848,19.488 20.8384264,19.488 L26.0571429,19.488 L26.0571429,18.144 L20.8384264,18.144 C20.0058164,18.144 19.2,18.25374 19.2,18.8219916" id="Fill-8" fill="#3C2921" mask="url(#mask-2)"></path>
                    <path d="M79.203721,14.784 C76.1748062,14.784 75.4285714,15.799482 75.4285714,17.471312 C75.4285714,19.1431421 76.1748062,20.16 79.203721,20.16 C82.2245173,20.16 82.9714286,19.1431421 82.9714286,17.471312 C82.9714286,15.799482 82.2245173,14.784 79.203721,14.784" id="Fill-10" fill="#1D1008" mask="url(#mask-2)"></path>
                    <path d="M141.258175,14.112 C136.885978,14.112 135.771429,15.6155708 135.771429,17.4723338 C135.771429,19.3277615 136.885978,20.832 141.258175,20.832 C145.633812,20.832 146.742857,19.3277615 146.742857,17.4723338 C146.742857,15.6155708 145.633812,14.112 141.258175,14.112" id="Fill-11" fill="#3C2921" mask="url(#mask-2)"></path>
                    <g id="Group-3" mask="url(#mask-2)">
                        <g transform="translate(1.938776, 43.700000)">
                            <mask id="mask-4" fill="white">
                                <use xlink:href="#path-3"></use>
                            </mask>
                            <g id="Clip-2" stroke="none" fill="none"></g>
                            <path d="M113.77551,5.61004489 C72.4311132,3.14315499 84.531812,3.40312506 64.4894725,2.62392129 C44.4485044,1.84471752 8.52356919,4.44159246 0.204081633,6 C0.204081633,6 65.1203601,-6.33586241 113.77551,5.61004489 Z" id="Fill-1" stroke="none" fill="#FFFFFF" fill-rule="evenodd" mask="url(#mask-4)"></path>
                        </g>
                    </g>
                    <path d="M2.14285714,49.7 C2.14285714,49.7 67.0591356,37.3641376 115.714286,49.3100449 C74.3698887,46.843155 86.4705875,47.1031251 66.428248,46.3239213 C46.3872799,45.5447175 10.4623447,48.1415925 2.14285714,49.7" id="Fill-1" fill="#DDB246" mask="url(#mask-2)"></path>
                </g>
            </g>
        </g>
    </g>
</svg>