<?xml version="1.0" encoding="UTF-8"?>
<svg width="197px" height="53px" viewBox="0 0 197 53" version="1.1" xmlns="http://www.w3.org/2000/svg" xmlns:xlink="http://www.w3.org/1999/xlink">
    <!-- Generator: Sketch 52.2 (67145) - http://www.bohemiancoding.com/sketch -->
    <title>logotipo</title>
    <desc>Created with Sketch.</desc>
    <defs>
        <polygon id="path-1" points="0 0 195.552 0 195.552 51.744 0 51.744"></polygon>
        <polygon id="path-3" points="3.43823529 1.14074074 94.5514706 1.14074074 94.5514706 5.7037037 3.43823529 5.7037037"></polygon>
    </defs>
    <g id="Page-1" stroke="none" stroke-width="1" fill="none" fill-rule="evenodd">
        <g id="01-HOME-SLIDE" transform="translate(-622.000000, -18.000000)">
            <g id="logotipo" transform="translate(637.000000, 22.000000)">
                <g id="Group-13" transform="translate(-14.336275, -3.674074)">
                    <mask id="mask-2" fill="white">
                        <use xlink:href="#path-1"></use>
                    </mask>
                    <g id="Clip-1"></g>
                    <text id="CALIDAD" mask="url(#mask-2)" font-family="Ubuntu-Bold, Ubuntu" font-size="12.6373632" font-weight="bold" letter-spacing="1.6128001" fill="#FFFFFF">
                        <tspan x="116.928" y="51.96">CALIDA</tspan>
                        <tspan x="173.476781" y="51.96">D</tspan>
                    </text>
                    <path d="M77.6199785,14.784 C74.6513757,14.784 73.92,15.799482 73.92,17.471312 C73.92,19.1431421 74.6513757,20.16 77.6199785,20.16 C80.5806243,20.16 81.312,19.1431421 81.312,17.471312 C81.312,15.799482 80.5806243,14.784 77.6199785,14.784" id="Fill-2" fill="#FFFFFF" mask="url(#mask-2)"></path>
                    <path d="M38.304,17.1356621 C38.304,18.8284534 39.9210207,19.488 41.7874261,19.488 L45.696,19.488 L45.696,14.784 L41.7874261,14.784 C39.9210207,14.784 38.304,15.4428709 38.304,17.1356621" id="Fill-3" fill="#FFFFFF" mask="url(#mask-2)"></path>
                    <path d="M184.421377,12.768 L184.128,12.768 L184.128,13.344576 L184.459018,13.344576 C184.561423,13.341216 184.643348,13.315008 184.706451,13.265952 C184.768448,13.216224 184.8,13.15104 184.8,13.069728 C184.8,12.960192 184.772323,12.88224 184.716969,12.836544 C184.661614,12.790848 184.563084,12.768 184.421377,12.768" id="Fill-4" fill="#FFFFFF" mask="url(#mask-2)"></path>
                    <path d="M138.433011,14.112 C134.148258,14.112 133.056,15.6155708 133.056,17.4723338 C133.056,19.3277615 134.148258,20.832 138.433011,20.832 C142.721136,20.832 143.808,19.3277615 143.808,17.4723338 C143.808,15.6155708 142.721136,14.112 138.433011,14.112" id="Fill-5" fill="#FFFFFF" mask="url(#mask-2)"></path>
                    <path d="M168.672,19.5038975 C168.672,20.3987935 169.57486,20.832 171.753896,20.832 L178.08,20.832 L178.08,18.144 L171.656509,18.144 C169.57486,18.144 168.672,18.5758817 168.672,19.5038975" id="Fill-6" fill="#FFFFFF" mask="url(#mask-2)"></path>
                    <path d="M185.735309,14.512182 C185.573577,14.7853318 185.344064,15.0056139 185.046101,15.1716726 C184.748808,15.3377314 184.421988,15.4210997 184.065639,15.4210997 C183.710633,15.4210997 183.386497,15.339087 183.088534,15.1743838 C182.791241,15.0096806 182.561058,14.7907541 182.396641,14.5169266 C182.233566,14.243099 182.151693,13.94826 182.151693,13.6317316 C182.151693,13.3104587 182.23558,13.0122307 182.404023,12.7370475 C182.571795,12.4618644 182.804663,12.2449713 183.102627,12.087046 C183.399919,11.9284429 183.721371,11.8498192 184.065639,11.8498192 C184.41125,11.8498192 184.732031,11.9284429 185.028652,12.087046 C185.325274,12.2449713 185.556799,12.4618644 185.725914,12.7370475 C185.893686,13.0122307 185.977572,13.3104587 185.977572,13.6317316 C185.977572,13.944871 185.897042,14.2383545 185.735309,14.512182 Z M181.057818,22.1197077 L170.637818,22.1197077 C167.180367,22.1197077 165.071805,21.1728337 165.071805,19.352965 C165.071805,17.5202183 167.180367,16.551655 170.638489,16.5509772 L177.908397,16.5509772 L177.908397,16.2798608 C177.908397,14.9893469 177.039337,14.363068 175.246858,14.363068 L165.726117,14.363068 L165.726117,12.9342847 L176.422606,12.9342847 C178.058721,12.9342847 181.057818,13.4263609 181.057818,15.6529042 L181.057818,22.1197077 Z M156.468444,22.1197077 L153.654567,22.1197077 L146.295404,12.9342847 L149.911903,12.9342847 L155.228942,19.7603174 L160.854682,12.9342847 L164.537619,12.9342847 L156.468444,22.1197077 Z M137.963162,22.3610013 C131.160332,22.3610013 129.212161,20.3384731 129.212161,17.5385186 C129.212161,14.7168749 131.161004,12.7126471 137.963162,12.7126471 C144.76465,12.7119693 146.714164,14.7168749 146.714164,17.5385186 C146.714164,20.3384731 144.76465,22.3610013 137.963162,22.3610013 Z M127.235804,22.1197077 L124.07833,22.1197077 L124.07833,16.3998298 C124.07833,15.446178 123.493811,14.363068 120.558467,14.363068 L115.703138,14.363068 L115.703138,22.1197077 L112.574521,22.1197077 L112.574521,12.9342847 L121.331562,12.9342847 C125.100398,12.9342847 127.235804,13.9360597 127.235804,16.0101 L127.235804,22.1197077 Z M109.822384,22.1197077 L106.672292,22.1197077 L106.672292,16.4005076 C106.672292,15.446178 106.083076,14.3623902 103.150417,14.3623902 L98.2930741,14.3623902 L98.2930741,22.1197077 L95.1698256,22.1197077 L95.1698256,12.9349625 L103.920827,12.9349625 C107.690334,12.9349625 109.822384,13.9360597 109.822384,16.0107778 L109.822384,22.1197077 Z M88.9629228,11.2716635 L92.0855002,11.2716635 L92.0855002,9.41858305 L88.9629228,9.41858305 L88.9629228,11.2716635 Z M88.9629228,22.1197077 L92.0855002,22.1197077 L92.0855002,12.9349625 L88.9629228,12.9349625 L88.9629228,22.1197077 Z M77.512801,22.3094891 C71.9118916,22.3094891 68.3544485,20.6102672 68.3544485,17.4016049 C68.3544485,14.1936203 71.9118916,12.495754 77.512801,12.495754 C83.1036441,12.495754 86.6584029,14.1936203 86.6584029,17.4016049 C86.6584029,20.6102672 83.1036441,22.3094891 77.512801,22.3094891 Z M66.8223521,16.551655 L61.6610061,16.551655 L61.6610061,16.0284004 C61.6610061,15.4312666 60.8858982,15.0428924 59.8638295,15.0428924 L58.4719908,15.0428924 L58.4719908,22.1203855 L53.3099737,22.1203855 L53.3099737,12.6828243 L61.502629,12.6828243 C64.1024281,12.6828243 66.8223521,13.8032127 66.8223521,15.6027477 L66.8223521,16.551655 Z M50.5417312,22.1203855 C50.5417312,24.7014134 47.7573827,25.8909365 44.2643641,25.8909365 L34.3704979,25.8909365 L34.3704979,23.66846 L43.3335635,23.66846 C44.4200567,23.66846 45.3750165,23.5823805 45.3750165,22.2911888 L45.3750165,22.1203855 L40.7391332,22.1203855 C35.5777871,22.1203855 32.487422,20.4753868 32.487422,17.4016049 C32.487422,14.3278229 35.5777871,12.6828243 40.7391332,12.6828243 L50.5417312,12.6828243 L50.5417312,22.1203855 Z M30.4862343,22.1203855 L18.7388201,22.1203855 C15.1847324,22.1203855 13.298301,20.9491627 13.298301,19.236385 C13.298301,17.5046291 15.1847324,16.3334063 18.7388201,16.3334063 L25.3275726,16.3334063 C25.3275726,15.6366372 24.8262691,14.9066564 22.851254,14.9066564 L14.5002216,14.9066564 L14.5002216,12.6828243 L24.2706074,12.6828243 C26.9610034,12.6828243 30.4862343,13.4622839 30.4862343,16.1449804 L30.4862343,22.1203855 Z M14.8646229,0 C6.65519032,0 0,6.72165286 0,15.0137474 L0,38.304 C0,38.304 29.3588047,31.2048176 95.1704967,35.3088418 C155.342356,39.0617703 181.459129,35.3088418 181.459129,35.3088418 C190.827533,34.3016444 195.552,28.9362513 195.552,21.0752318 L195.552,0 L14.8646229,0 Z" id="Fill-7" fill="#FFFFFF" mask="url(#mask-2)"></path>
                    <path d="M18.816,18.8219916 C18.816,19.35997 19.5715651,19.488 20.4216579,19.488 L25.536,19.488 L25.536,18.144 L20.4216579,18.144 C19.6057001,18.144 18.816,18.25374 18.816,18.8219916" id="Fill-8" fill="#FFFFFF" mask="url(#mask-2)"></path>
                    <path d="M77.6196466,14.784 C74.6513101,14.784 73.92,15.799482 73.92,17.471312 C73.92,19.1431421 74.6513101,20.16 77.6196466,20.16 C80.5800269,20.16 81.312,19.1431421 81.312,17.471312 C81.312,15.799482 80.5800269,14.784 77.6196466,14.784" id="Fill-10" fill="#FFFFFF" mask="url(#mask-2)"></path>
                    <path d="M138.433011,14.112 C134.148258,14.112 133.056,15.6155708 133.056,17.4723338 C133.056,19.3277615 134.148258,20.832 138.433011,20.832 C142.721136,20.832 143.808,19.3277615 143.808,17.4723338 C143.808,15.6155708 142.721136,14.112 138.433011,14.112" id="Fill-11" fill="#FFFFFF" mask="url(#mask-2)"></path>
                </g>
                <g id="Group-3" transform="translate(1.719118, 35.933333)">
                    <mask id="mask-4" fill="white">
                        <use xlink:href="#path-3"></use>
                    </mask>
                    <g id="Clip-2"></g>
                    <path d="M3.43823529,5.7037037 C3.43823529,5.7037037 55.5176379,-4.34773974 94.5514706,5.38596251 C61.3827254,3.37590407 71.0905703,3.58773153 55.0115052,2.95282475 C38.9335404,2.31791798 10.112585,4.43389015 3.43823529,5.7037037" id="Fill-1" fill="#FFFFFF" mask="url(#mask-4)"></path>
                </g>
            </g>
        </g>
    </g>
</svg>